<?xml version="1.0" encoding="utf-8"?>
<!-- Generator: Adobe Illustrator 16.0.0, SVG Export Plug-In . SVG Version: 6.00 Build 0)  -->
<!DOCTYPE svg PUBLIC "-//W3C//DTD SVG 1.1//EN" "http://www.w3.org/Graphics/SVG/1.1/DTD/svg11.dtd">
<svg version="1.1" xmlns="http://www.w3.org/2000/svg" xmlns:xlink="http://www.w3.org/1999/xlink" x="0px" y="0px"
	 width="395.15px" height="612px" viewBox="0 0 395.15 612" enable-background="new 0 0 395.15 612" xml:space="preserve">
<g id="Layer_1" display="none">
	<g display="inline">
		<path fill="#1C1C1C" stroke="#FFFFFF" stroke-miterlimit="10" d="M93.448,321.769c0,0-1.895,22.436-3.912,27.277
			c-1.654,3.971-4.333,21.996-3.5,25c0.759,2.738,0,11,30.5,11.5c0,0-1.5-6.5,0-11c0,0-20,0-18.5-9s7.968-29.695,7.484-35.598
			S93.448,321.769,93.448,321.769"/>
		<path fill="#1C1C1C" stroke="#FFFFFF" stroke-miterlimit="10" d="M111.131,378.808c0,0-0.639-12.762,15.633-14.012l114.773,0.25
			c0,0,10.75,1.023,11.25,13.762s-12,17.988-15.5,18.488s-110.523,3.5-110.523,3.5S110.977,402.319,111.131,378.808z"/>
		<path fill="#1C1C1C" stroke="#FFFFFF" stroke-miterlimit="10" d="M61.536,368.546"/>
		<polygon fill="#1C1C1C" stroke="#FFFFFF" stroke-miterlimit="10" points="139.048,400.448 139.048,411.546 222.787,409.796 
			222.787,397.909 		"/>
		<polygon fill="#1C1C1C" stroke="#FFFFFF" stroke-miterlimit="10" points="164.536,411.546 164.536,418.296 196.537,418.296 
			196.537,410.345 		"/>
		<rect x="169.786" y="418.296" fill="#1C1C1C" stroke="#FFFFFF" stroke-miterlimit="10" width="18.75" height="50.25"/>
		<rect x="162.036" y="468.546" fill="#1C1C1C" stroke="#FFFFFF" stroke-miterlimit="10" width="32.75" height="8"/>
		<polygon fill="#1C1C1C" stroke="#FFFFFF" stroke-miterlimit="10" points="112.286,497.546 241.787,497.546 194.787,476.546 
			162.036,476.546 		"/>
		<circle fill="#1C1C1C" stroke="#FFFFFF" stroke-miterlimit="10" cx="125.536" cy="512.046" r="8.5"/>
		<circle fill="#1C1C1C" stroke="#FFFFFF" stroke-miterlimit="10" cx="151.474" cy="512.046" r="8.5"/>
		<circle fill="#1C1C1C" stroke="#FFFFFF" stroke-miterlimit="10" cx="203.349" cy="512.046" r="8.5"/>
		<circle fill="#1C1C1C" stroke="#FFFFFF" stroke-miterlimit="10" cx="229.287" cy="512.046" r="8.5"/>
		<path fill="#1C1C1C" stroke="#FFFFFF" stroke-miterlimit="10" d="M101.418,194.408c-7.627-0.396-12,2-11,28.5
			s-5.313,87.96-5.5,95.999c-0.066,2.861,1.178,22.455,8.25,28.5c6.883,5.885,21.5,1.25,24-10.25
			c1.458-6.707,9.998-17.02,11.08-40.226c0.773-16.585-5.153-45.089-4.006-57.593C124.242,239.339,131.461,195.973,101.418,194.408z
			"/>
		<path fill="#4A4A4A" stroke="#FFFFFF" stroke-miterlimit="10" d="M196.536,264.547c-11.5,47.499-5.269,48.11-5.269,48.11
			s40-9.5,81,11s24.5,30,27.5,48.5s-4.5,63-11,101s10,31,10,31s30,7.5,32.5,10.5s0,5,0,5s-54,1.5-67.398,0
			c-13.396-1.5-2.717-18-2.717-18s6.115-23.5,0-40.5c-6.113-17-0.385-86-0.885-88.5c3.5-10-4.5-7-4.5-7s-79,4-117.122,0
			s-15.378-41.5-15.378-41.5s10.165-11.907,8.167-44.989c-1.769-29.293,6.664-86.621,33.102-112.621
			c12.433-12.227,14.649-29.333,14.649-29.333s-5.101-40.667,27.565-43.333c32.668-2.667,37.514,28.028,34.668,36
			c-2.5,7-6.721,7.489-7.334,10.667c-0.711,3.692,5.5,11.579,3.352,14.666c-1.24,1.782-8.684,0-8.684,0s-1.895,8.591-4,8.667
			c-6.959,0.25-18.002-2-18.002-2s-5.833,0.166-3.833,5.333c0,0,8.999,26.667,8.999,45.667S196.536,264.547,196.536,264.547z"/>
	</g>
</g>
<g id="Layer_2" display="none">
	<path display="inline" fill="#5A5A5A" stroke="#FFFFFF" stroke-miterlimit="10" d="M81.055,307.132"/>
	<g display="inline">
		<path fill="#1C1C1C" stroke="#FFFFFF" stroke-miterlimit="10" d="M93.561,321.861c0,0-1.895,22.436-3.912,27.279
			c-1.654,3.969-4.333,21.996-3.5,25c0.759,2.736,0,11,30.5,11.5c0,0-1.5-6.5,0-11c0,0-20,0-18.5-9s7.968-29.695,7.484-35.598
			S93.561,321.861,93.561,321.861"/>
		<path fill="#1C1C1C" stroke="#FFFFFF" stroke-miterlimit="10" d="M111.244,378.902c0,0-0.639-12.762,15.633-14.012l114.771,0.25
			c0,0,10.75,1.023,11.25,13.762s-12,17.988-15.5,18.488s-110.521,3.5-110.521,3.5S111.089,402.414,111.244,378.902z"/>
		<path fill="#1C1C1C" stroke="#FFFFFF" stroke-miterlimit="10" d="M87.783,368.141"/>
		<polygon fill="#1C1C1C" stroke="#FFFFFF" stroke-miterlimit="10" points="139.16,400.543 139.16,411.641 222.898,409.891 
			222.898,398.004 		"/>
		<polygon fill="#1C1C1C" stroke="#FFFFFF" stroke-miterlimit="10" points="164.648,411.641 164.648,418.391 196.648,418.391 
			196.648,410.439 		"/>
		<rect x="169.898" y="418.391" fill="#1C1C1C" stroke="#FFFFFF" stroke-miterlimit="10" width="18.75" height="50.25"/>
		<rect x="162.148" y="468.641" fill="#1C1C1C" stroke="#FFFFFF" stroke-miterlimit="10" width="32.75" height="8"/>
		<polygon fill="#1C1C1C" stroke="#FFFFFF" stroke-miterlimit="10" points="112.399,497.641 241.898,497.641 194.898,476.641 
			162.148,476.641 		"/>
		<circle fill="#1C1C1C" stroke="#FFFFFF" stroke-miterlimit="10" cx="125.649" cy="512.141" r="8.5"/>
		<circle fill="#1C1C1C" stroke="#FFFFFF" stroke-miterlimit="10" cx="151.586" cy="512.141" r="8.5"/>
		<circle fill="#1C1C1C" stroke="#FFFFFF" stroke-miterlimit="10" cx="203.461" cy="512.141" r="8.5"/>
		<circle fill="#1C1C1C" stroke="#FFFFFF" stroke-miterlimit="10" cx="229.398" cy="512.141" r="8.5"/>
		<path fill="#1C1C1C" stroke="#FFFFFF" stroke-miterlimit="10" d="M101.531,194.502c-7.627-0.397-12,2-11,28.5
			s-5.313,87.959-5.5,96c-0.066,2.859,1.178,22.453,8.25,28.5c6.883,5.885,21.5,1.25,24-10.25
			c1.458-6.707,9.998-17.021,11.08-40.228c0.773-16.584-5.153-45.088-4.007-57.592C124.354,239.433,131.574,196.066,101.531,194.502
			z"/>
		<path fill="#4A4A4A" stroke="#FFFFFF" stroke-miterlimit="10" d="M137.281,97.752c0,0-28,16.5-8.5,47.5s0.798,59.5,0.798,59.5
			s-9.798,36.5-3.298,69c6.5,32.5-4,50.5-4,50.5s-22.743,37.5,15.379,41.5c38.121,4,117.121,0,117.121,0s8-3,4.5,7
			c0.5,2.5-5.229,71.5,0.886,88.5s0,40.5,0,40.5s-10.68,16.5,2.718,18c13.396,1.5,67.396,0,67.396,0s2.5-2,0-5s-32.5-10.5-32.5-10.5
			s-16.5,7-10-31s14-82.5,11-101s13.5-28-27.5-48.5s-81-11-81-11s-11-17.5,0.5-65s-17.5-75.5-17.5-75.5l-4.5-5.5
			c0,0,11.5-4,12.5-7.5s1.5-16.5,4.5-18.5s6.5-2.5,6-5.5s-8-10.5-9-15C182.781,120.252,180.614,81.085,137.281,97.752z"/>
	</g>
	<path display="inline" fill="#1C1C1C" stroke="#FFFFFF" stroke-miterlimit="10" d="M315.139,307.132"/>
</g>
<g id="Layer_3">
	<g>
		<path fill="#1C1C1C" stroke="#FFFFFF" stroke-miterlimit="10" d="M93.448,321.752c0,0-1.895,22.436-3.912,27.277
			c-1.653,3.971-4.333,21.996-3.5,25c0.76,2.738,0,11,30.5,11.5c0,0-1.5-6.5,0-11c0,0-20,0-18.5-9s7.969-29.695,7.484-35.598
			S93.448,321.752,93.448,321.752"/>
		<path fill="#1C1C1C" stroke="#FFFFFF" stroke-miterlimit="10" d="M111.131,378.791c0,0-0.639-12.762,15.633-14.012l114.771,0.25
			c0,0,10.75,1.023,11.25,13.762s-12,17.988-15.5,18.488s-110.521,3.5-110.521,3.5S110.977,402.303,111.131,378.791z"/>
		<path fill="#1C1C1C" stroke="#FFFFFF" stroke-miterlimit="10" d="M87.67,368.029"/>
		<polygon fill="#1C1C1C" stroke="#FFFFFF" stroke-miterlimit="10" points="139.047,400.432 139.047,411.529 222.785,409.779 
			222.785,397.893 		"/>
		<polygon fill="#1C1C1C" stroke="#FFFFFF" stroke-miterlimit="10" points="164.536,411.529 164.536,418.279 196.536,418.279 
			196.536,410.328 		"/>
		<rect x="169.786" y="418.279" fill="#1C1C1C" stroke="#FFFFFF" stroke-miterlimit="10" width="18.75" height="50.25"/>
		<rect x="162.036" y="468.529" fill="#1C1C1C" stroke="#FFFFFF" stroke-miterlimit="10" width="32.75" height="8"/>
		<polygon fill="#1C1C1C" stroke="#FFFFFF" stroke-miterlimit="10" points="112.286,497.529 241.785,497.529 194.786,476.529 
			162.036,476.529 		"/>
		<circle fill="#1C1C1C" stroke="#FFFFFF" stroke-miterlimit="10" cx="125.536" cy="512.029" r="8.5"/>
		<circle fill="#1C1C1C" stroke="#FFFFFF" stroke-miterlimit="10" cx="151.473" cy="512.029" r="8.5"/>
		<circle fill="#1C1C1C" stroke="#FFFFFF" stroke-miterlimit="10" cx="203.348" cy="512.029" r="8.5"/>
		<circle fill="#1C1C1C" stroke="#FFFFFF" stroke-miterlimit="10" cx="229.285" cy="512.029" r="8.5"/>
		<path fill="#1C1C1C" stroke="#FFFFFF" stroke-miterlimit="10" d="M101.418,194.391c-7.627-0.397-12,2-11,28.5s-5.313,87.96-5.5,96
			c-0.066,2.861,1.178,22.455,8.25,28.5c6.883,5.885,21.5,1.25,24-10.25c1.458-6.707,9.998-17.02,11.08-40.227
			c0.773-16.584-5.153-45.088-4.007-57.592C124.242,239.322,131.461,195.956,101.418,194.391z"/>
		<g display="none">
			<path display="inline" fill="#4A4A4A" stroke="#FFFFFF" stroke-miterlimit="10" d="M137.168,97.641c0,0-28,16.5-8.5,47.5
				s0.798,59.5,0.798,59.5s-9.798,36.5-3.298,69s-4,50.5-4,50.5s-22.743,37.5,15.379,41.5c38.121,4,109.121-25,109.121-25s8-3,4.5,7
				c0.5,2.5-17.229,64.5-11.113,81.5c6.113,17,0,40.5,0,40.5s-10.68,16.5,2.717,18s73.396,0,73.396,0s2.5-2,0-5
				s-38.5-10.5-38.5-10.5s-16.5,7-10-31s26-75.5,23-94s18.232-45.369-27.5-48.5c-48.383-3.313-73,14-73,14s-11-17.5,0.5-65
				c11.5-47.5-17.5-75.5-17.5-75.5l-4.5-5.5c0,0,11.5-4,12.5-7.5s1.5-16.5,4.5-18.5s6.5-2.5,6-5.5s-8-10.5-9-15
				C182.668,120.141,180.501,80.975,137.168,97.641z"/>
			<path display="inline" fill="#1C1C1C" stroke="#FFFFFF" stroke-miterlimit="10" d="M306.275,343.77"/>
		</g>
	</g>
</g>
</svg>
